<?xml version="1.0" encoding="utf-8"?><!-- Generator: Adobe Illustrator 27.5.0, SVG Export Plug-In . SVG Version: 6.00 Build 0)  -->
<svg version="1.1" xmlns="http://www.w3.org/2000/svg" xmlns:xlink="http://www.w3.org/1999/xlink"
    x="0px" y="0px" viewBox="0 0 500 500" style="enable-background:new 0 0 500 500;"
    xml:space="preserve">
<g id="BACKGROUND">
	<g id="XMLID_90_" style="opacity:0.74;">
		<defs>
			<rect id="XMLID_88_" style="opacity:0.74;" width="500" height="500" />
		</defs>
        <clipPath id="XMLID_00000022546485654129025200000000152271251401711025_">
			<use xlink:href="#XMLID_88_" style="overflow:visible;" />
		</clipPath>

        <path id="XMLID_76_"
            style="opacity:0.23;clip-path:url(#XMLID_00000022546485654129025200000000152271251401711025_);fill-rule:evenodd;clip-rule:evenodd;fill:#B099FF;"
            d="
			M89.085,365.609c0,0,30.068,80.959,106.573,98.423c92.779,21.179,82.743-106.517,174.133-112.676
			c91.39-6.159,134.228-217.532-40.533-289.57C154.497-10.251-6.436,131.23,89.085,365.609z" />
	</g>
</g>
    <g id="OBJECTS">
	<path
        style="opacity:0.6;fill:none;stroke:#5205DB;stroke-width:0.5;stroke-miterlimit:10;stroke-dasharray:2,1;"
        d="
		M250.184,413.19c-35.01,6.164-73.663,6.936-103.223-12.742c-26.023-17.324-40.888-49.938-36.851-80.856
		c4.036-30.918,26.78-58.66,56.385-68.778c28.759-9.829,60.345-3.612,89.761,4.048c29.416,7.66,59.594,16.772,89.683,12.419
		c16.536-2.392,33.117-9.401,43.305-22.594c9.721-12.589,12.522-29.456,10.688-45.233c-4.24-36.464-32.628-68.103-67.617-79.623
		c-34.989-11.52-74.929-3.954-105.39,16.704" />
        <g>
		<path style="fill:#282629;" d="M314.094,126.129l45.771,267.935c0.262,1.536,0.363,3.069,0.317,4.568
			c-0.023,0.749-0.089,1.485-0.185,2.217c-0.057,0.372-0.115,0.745-0.173,1.107c-0.394,2.172-1.117,4.249-2.106,6.18
			c-0.499,0.971-1.064,1.904-1.689,2.786c-0.625,0.882-1.318,1.715-2.059,2.507c-0.496,0.518-1.024,1.021-1.565,1.506l-0.01,0.002
			c-0.543,0.475-1.111,0.925-1.703,1.348l-0.01,0.002c-0.888,0.635-1.837,1.21-2.819,1.71l-0.01,0.002
			c-0.658,0.334-1.331,0.64-2.03,0.911c-1.408,0.543-2.888,0.957-4.424,1.219l-109.904,18.775c-1.624,0.278-3.239,0.372-4.822,0.3
			c-0.264-0.015-0.517-0.022-0.783-0.047c-0.286-0.022-0.583-0.051-0.87-0.083c-1.213-0.145-2.392-0.387-3.545-0.714
			c-0.583-0.172-1.149-0.358-1.698-0.566c-0.258-0.097-0.516-0.194-0.766-0.302c-0.541-0.22-1.068-0.472-1.586-0.736
			c-1.611-0.822-3.115-1.844-4.483-3.02c-0.544-0.471-1.071-0.965-1.574-1.493c-0.749-0.788-1.446-1.626-2.083-2.524
			c-0.858-1.193-1.59-2.467-2.194-3.824l-0.002-0.01c-0.764-1.702-1.326-3.519-1.654-5.437L159.663,152.51
			c-2.098-12.279,6.167-23.962,18.466-26.063l109.904-18.775C300.331,105.572,311.996,113.85,314.094,126.129z" />
            <path style="fill:#F7F7F7;" d="M309.202,126.965l45.771,267.935c0.202,1.184,0.287,2.388,0.249,3.582
			c-0.009,0.535-0.058,1.077-0.137,1.675l-0.161,1.004c-0.277,1.558-0.828,3.172-1.621,4.718c-0.385,0.75-0.833,1.491-1.329,2.18
			c-0.453,0.651-1.003,1.319-1.625,1.979c-0.291,0.302-0.645,0.644-1.055,1.016l-0.166,0.149c-0.341,0.3-0.694,0.592-1.07,0.867
			l-0.262,0.176c-0.618,0.448-1.274,0.852-1.958,1.211l-0.231,0.12c-0.547,0.275-1.062,0.504-1.57,0.711
			c-1.126,0.424-2.29,0.744-3.474,0.946L230.66,434.009c-1.243,0.212-2.507,0.297-3.755,0.239c-0.426-0.018-0.854-0.046-1.265-0.096
			c-0.945-0.111-1.884-0.302-2.815-0.566c-0.446-0.135-0.894-0.28-1.283-0.435c-0.225-0.082-0.397-0.144-0.549-0.208l-0.119-0.05
			c-0.335-0.134-0.718-0.31-1.192-0.552c-1.227-0.636-2.41-1.431-3.507-2.371c-0.449-0.387-0.845-0.762-1.212-1.142
			c-0.602-0.632-1.149-1.304-1.627-1.978c-0.622-0.871-1.159-1.776-1.605-2.737l-0.114-0.252c-0.604-1.357-1.039-2.783-1.29-4.25
			l-45.771-267.935c-1.635-9.569,4.831-18.699,14.41-20.335l109.904-18.775c7.309-1.248,14.357,2.23,18.006,8.202
			C308.004,122.608,308.816,124.704,309.202,126.965z" />
            <path style="opacity:0.2;fill:#282629;" d="M346.699,319.87c-0.053-1.018-0.099-2.229-0.122-3.604l3.608,21.124
			c-1.705-3.142-2.897-5.466-3.188-6.343C346.279,328.903,346.403,324.089,346.699,319.87z" />
            <path style="fill:#282629;" d="M325.687,193.976L325.687,193.976l-5.404-31.635l0,0c2.466-0.421,4.807,1.236,5.228,3.702
			l3.879,22.705C329.81,191.214,328.152,193.555,325.687,193.976z" />
            <path style="fill:#282629;" d="M168.646,204.524l2.14-0.366l-2.702-15.818l-2.14,0.366c-1.284,0.219-2.147,1.438-1.928,2.722
			l1.908,11.167C166.143,203.88,167.362,204.744,168.646,204.524z" />
            <path style="fill:#282629;" d="M171.906,223.603l2.14-0.366l-2.702-15.818l-2.14,0.366c-1.284,0.219-2.147,1.438-1.928,2.722
			l1.908,11.167C169.403,222.959,170.621,223.822,171.906,223.603z" />
            <path style="fill:#282629;" d="M251.423,125.855l-32.68,5.583c-5.498,0.939-10.716-2.756-11.655-8.254l0,0l52.589-8.984l0,0
			C260.616,119.698,256.921,124.916,251.423,125.855z" />
	</g>
        <g>
		<g>
			<g>
				<path style="fill:#7DBDDB;" d="M374.945,384.921c0.109,0.521,0.251,1.029,0.418,1.521l2.775-0.037l1.371,2.386l-1.426,2.381
					c0.707,0.809,1.505,1.526,2.372,2.145l2.223-1.665l2.513,1.121l0.246,2.768c0.999,0.225,2.035,0.343,3.086,0.337l0.835-2.652
					l2.698-0.549l1.814,2.108c0.999-0.424,1.931-0.956,2.783-1.583l-0.884-2.634l1.858-2.033l2.703,0.633
					c0.547-0.912,0.992-1.888,1.318-2.913l-2.259-1.61l0.304-2.734l2.559-1.079c-0.048-0.546-0.126-1.099-0.243-1.653
					c-0.11-0.506-0.245-0.997-0.403-1.477l-2.777,0.029l-1.363-2.39l1.439-2.378c-0.709-0.809-1.505-1.536-2.373-2.157l-2.23,1.658
					l-2.51-1.129l-0.235-2.771c-1.031-0.234-2.097-0.358-3.181-0.349l-0.826,2.657l-2.695,0.561l-1.818-2.104
					c-0.997,0.429-1.927,0.965-2.777,1.594l0.892,2.632l-1.849,2.041l-2.705-0.626c-0.547,0.917-0.99,1.895-1.311,2.918l2.269,1.6
					l-0.293,2.74l-2.56,1.084C374.752,383.848,374.83,384.386,374.945,384.921z M383.628,378.189
					c2.13-2.674,6.027-3.129,8.714-0.988c2.673,2.14,3.118,6.035,0.98,8.708c-2.125,2.684-6.027,3.128-8.703,0.996
					C381.928,384.77,381.492,380.865,383.628,378.189z" />
			</g>
		</g>
	</g>
        <g>
		<g>
			<path style="fill:#3B4AE4;" d="M305.461,89.027c-0.007,0.593,0.026,1.18,0.089,1.756l3.027,0.627l0.918,2.925l-2.124,2.247
				c0.575,1.049,1.27,2.022,2.064,2.903l2.819-1.276l2.464,1.824l-0.397,3.07c1.033,0.485,2.13,0.863,3.276,1.109l1.545-2.684
				l3.067,0.051l1.467,2.729c1.188-0.221,2.33-0.576,3.407-1.053l-0.329-3.078l2.509-1.765l2.788,1.339
				c0.814-0.86,1.533-1.815,2.133-2.852l-2.071-2.294l0.987-2.901l3.043-0.559c0.078-0.605,0.127-1.225,0.132-1.857
				c0.002-0.577-0.027-1.143-0.083-1.703l-3.028-0.636l-0.908-2.927l2.137-2.241c-0.577-1.05-1.268-2.033-2.063-2.917l-2.824,1.268
				l-2.459-1.831l0.41-3.071c-1.066-0.502-2.195-0.893-3.376-1.144l-1.538,2.691l-3.067-0.038l-1.472-2.726
				c-1.188,0.227-2.328,0.587-3.404,1.066l0.338,3.077l-2.501,1.776l-2.792-1.331c-0.815,0.866-1.532,1.823-2.128,2.859l2.084,2.286
				l-0.977,2.91l-3.045,0.563C305.509,87.814,305.464,88.418,305.461,89.027z M316.523,83.792c2.959-2.397,7.308-1.955,9.715,1.02
				c2.393,2.971,1.941,7.314-1.027,9.708c-2.957,2.409-7.307,1.954-9.706-1.009C313.093,90.541,313.558,86.189,316.523,83.792z" />
		</g>
	</g>
        <g>
		<g>
			<g>
				<path style="fill:#7DBDDB;" d="M341.549,107.885c-0.004,0.299,0.013,0.595,0.045,0.886l1.528,0.316l0.463,1.476l-1.072,1.134
					c0.29,0.53,0.641,1.02,1.042,1.465l1.423-0.644l1.244,0.921l-0.201,1.55c0.521,0.245,1.075,0.435,1.653,0.56l0.78-1.355
					l1.548,0.026l0.74,1.377c0.6-0.112,1.176-0.291,1.719-0.531l-0.166-1.554l1.266-0.891l1.407,0.675
					c0.411-0.434,0.774-0.916,1.077-1.439l-1.045-1.158l0.498-1.464l1.536-0.282c0.04-0.305,0.064-0.618,0.067-0.937
					c0.001-0.291-0.014-0.577-0.042-0.86l-1.528-0.321l-0.458-1.478l1.079-1.131c-0.291-0.53-0.64-1.026-1.041-1.472l-1.425,0.64
					l-1.241-0.924l0.207-1.55c-0.538-0.253-1.108-0.451-1.704-0.577l-0.776,1.358l-1.548-0.019l-0.743-1.376
					c-0.6,0.114-1.175,0.296-1.718,0.538l0.171,1.553l-1.262,0.896l-1.409-0.672c-0.411,0.437-0.773,0.92-1.074,1.443l1.052,1.154
					l-0.493,1.469l-1.537,0.284C341.574,107.272,341.551,107.577,341.549,107.885z M347.132,105.242
					c1.493-1.21,3.688-0.986,4.903,0.515c1.208,1.499,0.98,3.691-0.518,4.899c-1.492,1.216-3.688,0.986-4.899-0.509
					C345.401,108.648,345.636,106.452,347.132,105.242z" />
			</g>
		</g>
	</g>
        <g>
		<g>
			<g>
				<path style="fill:#A6A1FF;" d="M87.611,154.453c0.01,1.028,0.089,2.045,0.22,3.042l5.275,0.976l1.699,5.04l-3.601,3.975
					c1.036,1.799,2.278,3.461,3.688,4.961l4.842-2.318l4.342,3.073l-0.576,5.341c1.809,0.803,3.728,1.418,5.723,1.803l2.582-4.714
					l5.321-0.025l2.645,4.68c2.053-0.427,4.021-1.084,5.871-1.951l-0.684-5.328l4.288-3.154l4.886,2.219
					c1.381-1.522,2.592-3.206,3.596-5.026l-3.677-3.903l1.606-5.069l5.258-1.081c0.114-1.053,0.174-2.13,0.161-3.226
					c-0.018-1-0.09-1.982-0.207-2.951l-5.276-0.991l-1.683-5.045l3.625-3.965c-1.039-1.8-2.275-3.48-3.686-4.984l-4.852,2.303
					l-4.333-3.086l0.598-5.342c-1.867-0.832-3.841-1.469-5.899-1.86l-2.568,4.725l-5.321,0.047l-2.654-4.674
					c-2.052,0.437-4.017,1.104-5.866,1.975l0.699,5.325l-4.274,3.173l-4.891-2.206c-1.382,1.533-2.59,3.219-3.586,5.038l3.699,3.888
					l-1.588,5.084l-5.261,1.089C87.649,152.346,87.594,153.395,87.611,154.453z M106.608,144.962
					c5.045-4.266,12.605-3.66,16.891,1.411c4.261,5.065,3.636,12.616-1.424,16.878c-5.04,4.288-12.604,3.659-16.875-1.393
					C100.906,156.797,101.551,149.231,106.608,144.962z" />
			</g>
		</g>
	</g>
        <g>
		<path style="fill:#7DBDDB;" d="M350.99,189.488c0.517,0.21,1.153-0.118,1.562-0.747c2.241,0.717,3.217,1.072,4.281,1.918
			c-0.34,1.51,0.332,1.803-2.933,1.683c-0.073-0.489-0.36-0.861-0.73-0.886c-0.456-0.03-0.86,0.477-0.904,1.133
			c-0.042,0.655,0.293,1.211,0.748,1.241c0.372,0.024,0.707-0.311,0.842-0.79c3.299,0.163,2.557,0.25,2.774,1.941
			c-1.18,0.692-2.157,1.071-4.527,1.628c-0.263-0.594-0.746-0.972-1.243-0.908c-0.664,0.086-1.102,0.93-0.979,1.885
			c0.124,0.955,0.763,1.659,1.427,1.573c0.571-0.074,0.972-0.709,0.996-1.492c5.35-1.117,4.715-0.53,5.304,0.781
			c-0.473,0.417-1.016,0.776-2.005,1.314c-0.343-0.38-0.807-0.533-1.133-0.335c-0.391,0.237-0.431,0.884-0.09,1.446
			c0.341,0.561,0.935,0.824,1.325,0.588c0.309-0.188,0.396-0.632,0.251-1.087c0.975-0.499,1.551-0.765,2.172-0.899
			c0.677,1.196,1.762,1.141-2.227,4.894c-0.631-0.385-1.334-0.411-1.71-0.007c-0.456,0.491-0.254,1.42,0.451,2.076
			c0.705,0.655,1.647,0.789,2.103,0.299c0.357-0.384,0.306-1.036-0.069-1.616c4.033-3.612,3.593-2.679,5.115-1.608
			c-0.211,0.626-0.526,1.242-1.174,2.29c-0.505-0.184-1.011-0.088-1.202,0.258c-0.221,0.4,0.066,0.982,0.641,1.299
			c0.575,0.317,1.22,0.25,1.442-0.149c0.168-0.306,0.039-0.717-0.287-1.036c1.707-2.659,1.385-2.013,2.881-1.383
			c-0.005,1.299-0.183,2.35-0.874,4.63c-0.641-0.001-1.176,0.278-1.323,0.751c-0.198,0.64,0.387,1.389,1.307,1.674
			c0.92,0.285,1.826-0.003,2.024-0.643c0.171-0.555-0.246-1.19-0.959-1.535c1.659-5.069,1.741-4.133,3.411-3.97
			c0.159,0.712,0.204,1.421,0.158,2.811c-0.483,0.104-0.836,0.412-0.837,0.782c-0.002,0.457,0.529,0.83,1.185,0.833
			c0.657,0.002,1.191-0.366,1.194-0.822c0.001-0.373-0.355-0.687-0.842-0.792c0.065-1.361,0.119-2.05,0.373-2.753
			c1.438-0.001,1.938-1.033,3.255,4.662c-0.657,0.314-1.056,0.878-0.929,1.409c0.156,0.651,1.041,0.997,1.977,0.773
			c0.935-0.225,1.569-0.935,1.413-1.586c-0.125-0.518-0.714-0.839-1.42-0.836c-0.552-2.53-0.739-3.553-0.488-5.027
			c0.421-0.137,0.832-0.297,1.233-0.477c0.452,0.513,0.836,1.108,1.452,2.264c-0.344,0.344-0.472,0.786-0.278,1.097
			c0.242,0.388,0.889,0.419,1.447,0.071c0.556-0.348,0.811-0.945,0.57-1.332c-0.2-0.32-0.676-0.394-1.148-0.216
			c-0.576-1.118-0.873-1.733-1.017-2.402c1.214-0.687,1.143-1.785,5.018,2.36c-0.401,0.596-0.46,1.275-0.089,1.667
			c0.46,0.486,1.4,0.344,2.099-0.317c0.699-0.662,0.893-1.594,0.433-2.08c-0.368-0.388-1.04-0.37-1.652-0.013
			c-4.225-4.9-2.888-6.033,0.529-4.08c-0.151,0.541-0.002,1.062,0.375,1.219c0.422,0.176,0.967-0.174,1.22-0.781
			c0.251-0.606,0.113-1.241-0.308-1.416c-0.306-0.127-0.674,0.023-0.951,0.343c-1.02-0.656-1.57-1.036-2.021-1.535
			c0.666-1.164,0.064-2.049,5.435-0.412c-0.018,0.672,0.267,1.239,0.759,1.388c0.641,0.194,1.386-0.396,1.665-1.318
			c0.277-0.922-0.017-1.826-0.658-2.02c-0.54-0.162-1.152,0.235-1.498,0.914c-2.315-0.739-3.302-1.092-4.382-1.95
			c0.111-0.495,0.197-1.001,0.248-1.518c0.711-0.159,1.417-0.204,2.801-0.159c0.082,0.509,0.391,0.891,0.774,0.901
			c0.456,0.012,0.84-0.511,0.857-1.167c0.016-0.656-0.34-1.198-0.797-1.21c-0.362-0.009-0.674,0.318-0.799,0.778
			c-1.378-0.066-2.07-0.119-2.778-0.374c-0.001-1.447-1.033-1.939,4.678-3.259c0.368,0.633,0.967,0.987,1.488,0.815
			c0.636-0.21,0.906-1.121,0.604-2.036c-0.303-0.913-1.064-1.484-1.7-1.274c-0.501,0.166-0.771,0.771-0.715,1.467
			c-5.493,1.154-4.843,0.567-5.437-0.754c0.507-0.447,1.095-0.828,2.225-1.432c0.405,0.343,0.905,0.43,1.203,0.177
			c0.349-0.295,0.286-0.941-0.138-1.442c-0.425-0.5-1.052-0.667-1.4-0.372c-0.267,0.227-0.292,0.659-0.098,1.074
			c-1.061,0.546-1.66,0.829-2.311,0.97c-0.69-1.217-1.79-1.143,2.394-5.05c0.677,0.297,1.377,0.227,1.695-0.225
			c0.386-0.547,0.06-1.441-0.727-1.995c-0.788-0.553-1.739-0.559-2.124-0.012c-0.3,0.426-0.166,1.059,0.277,1.581
			c-4.072,3.654-3.639,2.745-5.177,1.664c0.216-0.639,0.538-1.267,1.216-2.356c0.451,0.129,0.884,0.034,1.064-0.274
			c0.231-0.394-0.041-0.982-0.607-1.315c-0.566-0.332-1.213-0.282-1.445,0.112c-0.196,0.334-0.029,0.806,0.37,1.144
			c-0.676,1.052-1.061,1.614-1.568,2.072c-1.146-0.656-2.024-0.079-0.48-5.213c0.796,0.096,1.498-0.221,1.65-0.787
			c0.174-0.646-0.439-1.373-1.368-1.623c-0.93-0.249-1.825,0.073-1.999,0.719c-0.127,0.475,0.171,0.992,0.706,1.333
			c-0.71,2.219-1.067,3.191-1.908,4.251c-1.514-0.341-1.806,0.337-1.682-2.968c0.532-0.13,0.905-0.501,0.866-0.9
			c-0.044-0.454-0.61-0.771-1.264-0.708c-0.653,0.064-1.147,0.485-1.104,0.939c0.034,0.342,0.362,0.607,0.801,0.689
			c-0.162,3.264-0.254,2.527-1.94,2.744c-0.678-1.155-1.055-2.117-1.592-4.379c0.67-0.262,1.106-0.787,1.024-1.322
			c-0.102-0.662-0.956-1.079-1.907-0.933c-0.952,0.147-1.64,0.803-1.538,1.464c0.082,0.53,0.648,0.898,1.357,0.95
			c0.5,2.308,0.662,3.307,0.422,4.72c-1.251,0.407-1.175,1.065-2.586-1.596c0.411-0.343,0.581-0.827,0.38-1.165
			c-0.234-0.392-0.881-0.437-1.445-0.101c-0.563,0.337-0.83,0.928-0.597,1.321c0.18,0.301,0.604,0.396,1.045,0.272
			c1.393,2.7,0.992,2.107-0.35,3.107c-1.167-0.672-1.992-1.349-3.683-3.158c0.42-0.581,0.503-1.257,0.145-1.661
			c-0.443-0.502-1.387-0.393-2.109,0.245c-0.722,0.637-0.947,1.561-0.504,2.063c0.357,0.403,1.036,0.406,1.663,0.063
			c3.75,4.171,2.836,3.719,1.747,5.269c-0.611-0.206-1.214-0.512-2.216-1.129c0.171-0.426,0.122-0.857-0.158-1.069
			c-0.365-0.275-0.981-0.073-1.376,0.451c-0.395,0.524-0.42,1.173-0.056,1.448c0.313,0.236,0.811,0.119,1.196-0.249
			c1.003,0.646,1.547,1.022,1.994,1.518c-0.656,1.147-0.076,2.026-5.227,0.475c0.089-0.676-0.14-1.279-0.621-1.476
			c-0.62-0.253-1.418,0.265-1.781,1.156C350.162,188.307,350.37,189.235,350.99,189.488z" />
	</g>
        <g>
		<path style="fill:#3B4AE4;" d="M126.146,192.009c0.301,0.122,0.671-0.069,0.909-0.435c1.304,0.417,1.872,0.624,2.491,1.116
			c-0.198,0.879,0.193,1.049-1.707,0.979c-0.043-0.285-0.209-0.501-0.425-0.515c-0.265-0.017-0.5,0.278-0.526,0.659
			c-0.025,0.381,0.17,0.705,0.435,0.722c0.217,0.014,0.411-0.181,0.49-0.46c1.919,0.095,1.488,0.145,1.614,1.13
			c-0.687,0.403-1.255,0.623-2.634,0.947c-0.153-0.346-0.434-0.566-0.723-0.528c-0.386,0.05-0.641,0.541-0.569,1.097
			c0.072,0.556,0.444,0.965,0.83,0.915c0.332-0.043,0.566-0.412,0.579-0.868c3.113-0.65,2.744-0.308,3.086,0.455
			c-0.275,0.243-0.591,0.452-1.167,0.764c-0.2-0.221-0.47-0.31-0.66-0.195c-0.227,0.138-0.251,0.515-0.053,0.841
			c0.198,0.326,0.544,0.479,0.771,0.342c0.18-0.109,0.23-0.368,0.146-0.633c0.567-0.29,0.902-0.445,1.264-0.523
			c0.394,0.696,1.025,0.664-1.296,2.848c-0.367-0.224-0.776-0.239-0.995-0.004c-0.265,0.286-0.148,0.826,0.263,1.208
			c0.41,0.381,0.958,0.459,1.224,0.174c0.208-0.224,0.178-0.603-0.04-0.94c2.347-2.102,2.09-1.559,2.977-0.936
			c-0.123,0.364-0.306,0.723-0.683,1.332c-0.294-0.107-0.588-0.051-0.699,0.15c-0.128,0.233,0.039,0.571,0.373,0.756
			c0.335,0.184,0.71,0.145,0.839-0.087c0.098-0.178,0.023-0.417-0.167-0.603c0.993-1.547,0.806-1.171,1.676-0.805
			c-0.003,0.756-0.107,1.367-0.509,2.694c-0.373-0.001-0.684,0.162-0.77,0.437c-0.115,0.372,0.225,0.809,0.761,0.974
			c0.535,0.166,1.063-0.002,1.178-0.374c0.1-0.323-0.143-0.692-0.558-0.893c0.965-2.95,1.013-2.405,1.985-2.31
			c0.093,0.415,0.119,0.827,0.092,1.636c-0.281,0.06-0.486,0.24-0.487,0.455c-0.001,0.266,0.308,0.483,0.69,0.485
			c0.382,0.001,0.693-0.213,0.695-0.479c0.001-0.217-0.206-0.4-0.49-0.461c0.038-0.792,0.069-1.193,0.217-1.602
			c0.837-0.001,1.128-0.601,1.894,2.713c-0.382,0.183-0.614,0.511-0.54,0.82c0.091,0.379,0.606,0.58,1.151,0.45
			c0.544-0.131,0.913-0.544,0.822-0.923c-0.073-0.302-0.415-0.488-0.826-0.487c-0.321-1.472-0.43-2.067-0.284-2.925
			c0.245-0.08,0.484-0.173,0.717-0.278c0.263,0.298,0.487,0.645,0.845,1.317c-0.2,0.2-0.275,0.457-0.162,0.638
			c0.141,0.226,0.518,0.243,0.842,0.041c0.323-0.203,0.472-0.55,0.331-0.775c-0.117-0.186-0.393-0.229-0.668-0.126
			c-0.335-0.65-0.508-1.009-0.592-1.398c0.706-0.4,0.665-1.039,2.92,1.373c-0.233,0.347-0.268,0.742-0.052,0.97
			c0.268,0.283,0.815,0.2,1.221-0.185c0.407-0.385,0.52-0.927,0.252-1.21c-0.214-0.226-0.605-0.215-0.961-0.008
			c-2.459-2.851-1.68-3.51,0.308-2.374c-0.088,0.315-0.001,0.618,0.218,0.709c0.246,0.102,0.563-0.102,0.71-0.454
			c0.146-0.353,0.066-0.722-0.179-0.824c-0.178-0.074-0.392,0.013-0.553,0.2c-0.593-0.382-0.914-0.603-1.176-0.893
			c0.388-0.678,0.037-1.192,3.162-0.24c-0.011,0.391,0.155,0.721,0.441,0.808c0.373,0.113,0.807-0.231,0.969-0.767
			c0.161-0.536-0.01-1.063-0.383-1.175c-0.314-0.094-0.67,0.137-0.872,0.532c-1.347-0.43-1.921-0.635-2.55-1.135
			c0.065-0.288,0.115-0.582,0.144-0.883c0.413-0.093,0.825-0.119,1.63-0.092c0.048,0.296,0.227,0.518,0.45,0.524
			c0.266,0.007,0.489-0.297,0.499-0.679c0.009-0.382-0.198-0.697-0.464-0.704c-0.21-0.005-0.392,0.185-0.465,0.453
			c-0.802-0.038-1.205-0.069-1.616-0.218c-0.001-0.842-0.601-1.128,2.722-1.896c0.214,0.368,0.563,0.575,0.866,0.474
			c0.37-0.122,0.527-0.653,0.351-1.184c-0.176-0.532-0.619-0.864-0.989-0.741c-0.292,0.097-0.449,0.449-0.416,0.854
			c-3.196,0.672-2.818,0.33-3.164-0.439c0.295-0.26,0.637-0.482,1.295-0.833c0.236,0.199,0.527,0.25,0.7,0.103
			c0.203-0.172,0.166-0.547-0.08-0.839c-0.247-0.291-0.612-0.388-0.815-0.217c-0.156,0.132-0.17,0.383-0.057,0.625
			c-0.617,0.318-0.966,0.483-1.345,0.564c-0.401-0.708-1.042-0.665,1.393-2.939c0.394,0.173,0.801,0.132,0.986-0.131
			c0.224-0.318,0.035-0.838-0.423-1.161c-0.458-0.322-1.012-0.325-1.236-0.007c-0.174,0.248-0.096,0.616,0.161,0.92
			c-2.37,2.126-2.117,1.598-3.013,0.968c0.126-0.372,0.313-0.737,0.707-1.371c0.262,0.075,0.514,0.02,0.619-0.159
			c0.134-0.229-0.024-0.572-0.353-0.765c-0.33-0.193-0.706-0.164-0.841,0.065c-0.114,0.194-0.017,0.469,0.215,0.666
			c-0.394,0.612-0.617,0.939-0.913,1.206c-0.667-0.382-1.178-0.046-0.279-3.033c0.463,0.056,0.872-0.128,0.96-0.458
			c0.101-0.376-0.255-0.799-0.796-0.945c-0.541-0.145-1.062,0.042-1.163,0.418c-0.074,0.276,0.1,0.577,0.411,0.776
			c-0.413,1.291-0.621,1.857-1.11,2.473c-0.881-0.199-1.051,0.196-0.979-1.727c0.31-0.075,0.526-0.292,0.504-0.524
			c-0.026-0.264-0.355-0.449-0.735-0.412c-0.38,0.038-0.668,0.282-0.642,0.547c0.02,0.199,0.211,0.353,0.466,0.401
			c-0.094,1.899-0.148,1.47-1.129,1.597c-0.394-0.672-0.614-1.232-0.927-2.548c0.39-0.152,0.644-0.458,0.596-0.769
			c-0.059-0.385-0.556-0.628-1.11-0.543c-0.554,0.085-0.954,0.467-0.895,0.852c0.048,0.308,0.377,0.522,0.79,0.553
			c0.291,1.343,0.385,1.924,0.245,2.747c-0.728,0.237-0.684,0.62-1.505-0.928c0.239-0.2,0.338-0.481,0.221-0.678
			c-0.137-0.228-0.513-0.254-0.841-0.059c-0.328,0.196-0.483,0.54-0.347,0.769c0.105,0.175,0.351,0.23,0.608,0.158
			c0.811,1.571,0.577,1.226-0.203,1.808c-0.679-0.391-1.159-0.785-2.143-1.838c0.244-0.338,0.292-0.731,0.085-0.967
			c-0.258-0.292-0.807-0.229-1.227,0.143c-0.42,0.371-0.551,0.908-0.293,1.2c0.208,0.235,0.603,0.236,0.968,0.037
			c2.182,2.427,1.65,2.164,1.016,3.066c-0.355-0.12-0.706-0.298-1.289-0.657c0.099-0.248,0.071-0.499-0.092-0.622
			c-0.212-0.16-0.571-0.043-0.801,0.262c-0.23,0.305-0.244,0.682-0.032,0.843c0.182,0.137,0.472,0.069,0.696-0.145
			c0.583,0.376,0.9,0.595,1.16,0.883c-0.382,0.667-0.044,1.179-3.041,0.277c0.052-0.394-0.081-0.744-0.362-0.859
			c-0.361-0.147-0.825,0.154-1.036,0.673C125.664,191.322,125.785,191.862,126.146,192.009z" />
	</g>
        <g>
		<path style="fill:#A6A1FF;" d="M402.731,278.072c0.22,0.09,0.491-0.05,0.666-0.318c0.955,0.305,1.371,0.457,1.824,0.817
			c-0.145,0.644,0.142,0.768-1.25,0.717c-0.031-0.208-0.153-0.367-0.311-0.377c-0.194-0.013-0.366,0.203-0.385,0.482
			c-0.018,0.279,0.125,0.516,0.319,0.529c0.158,0.01,0.301-0.133,0.359-0.337c1.406,0.069,1.089,0.106,1.182,0.827
			c-0.503,0.295-0.919,0.456-1.929,0.694c-0.112-0.253-0.318-0.414-0.53-0.387c-0.283,0.037-0.47,0.396-0.417,0.803
			c0.053,0.407,0.325,0.707,0.608,0.67c0.243-0.032,0.414-0.302,0.424-0.636c2.28-0.476,2.009-0.226,2.26,0.333
			c-0.202,0.178-0.433,0.331-0.854,0.56c-0.146-0.162-0.344-0.227-0.483-0.143c-0.167,0.101-0.184,0.377-0.039,0.616
			c0.145,0.239,0.398,0.351,0.564,0.25c0.132-0.08,0.169-0.269,0.107-0.463c0.415-0.212,0.661-0.326,0.925-0.383
			c0.289,0.509,0.751,0.486-0.949,2.085c-0.269-0.164-0.568-0.175-0.729-0.003c-0.194,0.209-0.108,0.605,0.192,0.884
			c0.301,0.279,0.702,0.336,0.896,0.127c0.152-0.164,0.13-0.441-0.03-0.689c1.718-1.539,1.531-1.141,2.18-0.685
			c-0.09,0.267-0.224,0.529-0.5,0.976c-0.215-0.078-0.431-0.037-0.512,0.11c-0.094,0.171,0.028,0.418,0.273,0.554
			c0.245,0.135,0.52,0.106,0.614-0.064c0.072-0.13,0.017-0.305-0.122-0.441c0.727-1.133,0.59-0.858,1.227-0.589
			c-0.002,0.553-0.078,1.001-0.372,1.973c-0.273-0.001-0.501,0.118-0.564,0.32c-0.084,0.273,0.165,0.592,0.557,0.713
			c0.392,0.121,0.778-0.001,0.862-0.274c0.073-0.236-0.105-0.507-0.409-0.654c0.707-2.16,0.742-1.761,1.453-1.691
			c0.068,0.304,0.087,0.605,0.067,1.198c-0.206,0.044-0.356,0.175-0.357,0.333c-0.001,0.195,0.225,0.353,0.505,0.355
			c0.28,0.001,0.508-0.156,0.509-0.35c0.001-0.159-0.151-0.293-0.359-0.337c0.028-0.58,0.051-0.873,0.159-1.173
			c0.613,0,0.826-0.44,1.387,1.986c-0.28,0.134-0.45,0.374-0.396,0.6c0.066,0.277,0.444,0.425,0.842,0.329
			c0.399-0.096,0.668-0.398,0.602-0.676c-0.053-0.221-0.304-0.357-0.605-0.356c-0.235-1.078-0.315-1.514-0.208-2.142
			c0.179-0.058,0.354-0.127,0.525-0.203c0.193,0.218,0.356,0.472,0.619,0.964c-0.146,0.146-0.201,0.335-0.118,0.467
			c0.103,0.165,0.379,0.178,0.616,0.03c0.237-0.148,0.346-0.403,0.243-0.568c-0.085-0.136-0.288-0.168-0.489-0.092
			c-0.245-0.476-0.372-0.738-0.433-1.023c0.517-0.293,0.487-0.76,2.138,1.005c-0.171,0.254-0.196,0.543-0.038,0.71
			c0.196,0.207,0.596,0.147,0.894-0.135c0.298-0.282,0.38-0.679,0.184-0.886c-0.157-0.165-0.443-0.158-0.704-0.006
			c-1.8-2.087-1.23-2.57,0.226-1.738c-0.064,0.231-0.001,0.452,0.16,0.519c0.18,0.075,0.412-0.074,0.52-0.333
			c0.107-0.258,0.048-0.529-0.131-0.603c-0.13-0.054-0.287,0.01-0.405,0.146c-0.434-0.28-0.669-0.441-0.861-0.654
			c0.284-0.496,0.027-0.873,2.315-0.176c-0.008,0.286,0.114,0.528,0.323,0.591c0.273,0.083,0.591-0.169,0.709-0.561
			c0.118-0.393-0.007-0.778-0.28-0.861c-0.23-0.069-0.491,0.1-0.638,0.389c-0.986-0.315-1.407-0.465-1.867-0.831
			c0.047-0.211,0.084-0.426,0.105-0.647c0.303-0.068,0.604-0.087,1.193-0.068c0.035,0.217,0.167,0.38,0.33,0.384
			c0.194,0.005,0.358-0.218,0.365-0.497c0.007-0.279-0.145-0.51-0.339-0.516c-0.154-0.004-0.287,0.135-0.34,0.332
			c-0.587-0.028-0.882-0.051-1.183-0.159c0-0.617-0.44-0.826,1.993-1.389c0.157,0.27,0.412,0.421,0.634,0.347
			c0.271-0.089,0.386-0.478,0.257-0.867c-0.129-0.389-0.453-0.633-0.724-0.543c-0.214,0.071-0.328,0.328-0.305,0.625
			c-2.34,0.492-2.064,0.242-2.317-0.321c0.216-0.191,0.466-0.353,0.948-0.61c0.172,0.146,0.385,0.183,0.513,0.075
			c0.148-0.126,0.122-0.401-0.059-0.614c-0.181-0.213-0.448-0.284-0.597-0.159c-0.114,0.097-0.124,0.281-0.042,0.457
			c-0.452,0.233-0.707,0.353-0.985,0.413c-0.294-0.518-0.763-0.487,1.02-2.152c0.289,0.126,0.587,0.097,0.722-0.096
			c0.164-0.233,0.026-0.614-0.31-0.85c-0.336-0.236-0.741-0.238-0.905-0.005c-0.128,0.181-0.071,0.451,0.118,0.673
			c-1.735,1.557-1.55,1.17-2.206,0.709c0.092-0.272,0.229-0.54,0.518-1.004c0.192,0.055,0.377,0.014,0.453-0.117
			c0.098-0.168-0.017-0.419-0.259-0.56c-0.241-0.141-0.517-0.12-0.616,0.048c-0.083,0.142-0.012,0.343,0.158,0.488
			c-0.288,0.448-0.452,0.688-0.668,0.883c-0.488-0.279-0.862-0.034-0.204-2.221c0.339,0.041,0.638-0.094,0.703-0.335
			c0.074-0.275-0.187-0.585-0.583-0.692c-0.396-0.106-0.778,0.031-0.852,0.306c-0.054,0.202,0.073,0.423,0.301,0.568
			c-0.303,0.945-0.455,1.359-0.813,1.811c-0.645-0.145-0.769,0.144-0.717-1.264c0.227-0.055,0.385-0.214,0.369-0.383
			c-0.019-0.194-0.26-0.328-0.538-0.302c-0.278,0.028-0.489,0.207-0.47,0.4c0.014,0.146,0.154,0.259,0.341,0.294
			c-0.069,1.391-0.108,1.077-0.826,1.169c-0.289-0.492-0.45-0.902-0.679-1.866c0.286-0.112,0.471-0.335,0.436-0.563
			c-0.043-0.282-0.407-0.46-0.813-0.397c-0.405,0.063-0.699,0.342-0.655,0.624c0.035,0.226,0.276,0.382,0.578,0.405
			c0.213,0.983,0.282,1.409,0.18,2.011c-0.533,0.174-0.501,0.454-1.102-0.68c0.175-0.146,0.248-0.352,0.162-0.496
			c-0.1-0.167-0.375-0.186-0.616-0.043c-0.24,0.144-0.354,0.396-0.254,0.563c0.077,0.128,0.257,0.169,0.445,0.116
			c0.594,1.15,0.423,0.898-0.149,1.324c-0.497-0.286-0.849-0.575-1.569-1.345c0.179-0.248,0.214-0.535,0.062-0.708
			c-0.189-0.214-0.591-0.167-0.899,0.104c-0.307,0.271-0.404,0.665-0.215,0.879c0.152,0.172,0.441,0.173,0.709,0.027
			c1.598,1.777,1.208,1.585,0.744,2.245c-0.26-0.088-0.517-0.218-0.944-0.481c0.073-0.182,0.052-0.365-0.068-0.455
			c-0.155-0.117-0.418-0.031-0.586,0.192c-0.168,0.223-0.179,0.5-0.024,0.617c0.133,0.101,0.345,0.051,0.509-0.106
			c0.427,0.275,0.659,0.436,0.849,0.647c-0.28,0.489-0.032,0.863-2.227,0.203c0.038-0.288-0.06-0.545-0.265-0.629
			c-0.264-0.108-0.604,0.113-0.759,0.493C402.378,277.569,402.467,277.965,402.731,278.072z" />
	</g>
        <g>
		<path style="fill:#A6A1FF;" d="M163.694,364.104c0.301,0.122,0.671-0.069,0.909-0.435c1.304,0.417,1.872,0.624,2.491,1.116
			c-0.198,0.879,0.193,1.049-1.707,0.979c-0.043-0.285-0.209-0.501-0.425-0.515c-0.265-0.017-0.5,0.278-0.526,0.659
			c-0.024,0.381,0.17,0.705,0.436,0.722c0.217,0.014,0.411-0.181,0.49-0.46c1.919,0.095,1.488,0.145,1.614,1.13
			c-0.687,0.403-1.255,0.623-2.634,0.947c-0.153-0.346-0.434-0.566-0.723-0.528c-0.386,0.05-0.641,0.541-0.569,1.097
			c0.072,0.555,0.444,0.965,0.83,0.915c0.332-0.043,0.566-0.413,0.58-0.868c3.113-0.65,2.744-0.309,3.086,0.455
			c-0.275,0.243-0.591,0.452-1.167,0.764c-0.2-0.221-0.47-0.31-0.66-0.195c-0.227,0.138-0.251,0.515-0.053,0.841
			c0.198,0.327,0.544,0.479,0.771,0.342c0.18-0.109,0.23-0.368,0.146-0.633c0.567-0.29,0.902-0.445,1.264-0.523
			c0.394,0.696,1.025,0.664-1.296,2.848c-0.367-0.224-0.776-0.239-0.995-0.004c-0.265,0.286-0.148,0.826,0.263,1.208
			c0.41,0.381,0.958,0.459,1.224,0.174c0.208-0.224,0.178-0.603-0.04-0.94c2.347-2.102,2.09-1.559,2.977-0.936
			c-0.123,0.364-0.306,0.723-0.683,1.332c-0.294-0.107-0.588-0.051-0.699,0.15c-0.128,0.233,0.039,0.571,0.373,0.756
			c0.335,0.184,0.71,0.145,0.839-0.087c0.098-0.178,0.023-0.417-0.167-0.603c0.993-1.547,0.806-1.172,1.676-0.805
			c-0.003,0.756-0.107,1.367-0.508,2.694c-0.373-0.001-0.684,0.162-0.77,0.437c-0.115,0.372,0.225,0.809,0.761,0.974
			c0.535,0.166,1.063-0.002,1.178-0.374c0.1-0.323-0.143-0.692-0.558-0.893c0.965-2.95,1.013-2.405,1.985-2.31
			c0.093,0.415,0.119,0.827,0.092,1.636c-0.281,0.06-0.486,0.24-0.487,0.455c-0.001,0.266,0.308,0.483,0.69,0.484
			c0.382,0.001,0.693-0.213,0.694-0.479c0.001-0.217-0.206-0.4-0.49-0.461c0.038-0.792,0.069-1.193,0.217-1.602
			c0.837,0,1.128-0.601,1.894,2.713c-0.382,0.183-0.614,0.511-0.54,0.82c0.091,0.379,0.606,0.581,1.15,0.45
			c0.544-0.131,0.913-0.544,0.823-0.923c-0.073-0.302-0.415-0.488-0.826-0.487c-0.321-1.472-0.43-2.067-0.284-2.925
			c0.245-0.08,0.484-0.173,0.717-0.278c0.263,0.298,0.487,0.644,0.845,1.317c-0.2,0.2-0.275,0.457-0.162,0.638
			c0.141,0.226,0.518,0.243,0.842,0.042c0.323-0.203,0.472-0.55,0.331-0.775c-0.117-0.186-0.393-0.229-0.668-0.126
			c-0.335-0.65-0.508-1.009-0.592-1.398c0.706-0.4,0.665-1.039,2.92,1.373c-0.233,0.347-0.268,0.742-0.052,0.97
			c0.268,0.283,0.815,0.2,1.221-0.185c0.406-0.385,0.519-0.927,0.252-1.21c-0.214-0.226-0.605-0.215-0.961-0.008
			c-2.459-2.851-1.68-3.51,0.308-2.374c-0.088,0.315-0.001,0.618,0.218,0.709c0.245,0.102,0.563-0.102,0.71-0.454
			c0.146-0.353,0.066-0.722-0.179-0.824c-0.178-0.074-0.392,0.013-0.553,0.2c-0.593-0.382-0.914-0.603-1.176-0.893
			c0.388-0.677,0.037-1.192,3.162-0.24c-0.011,0.391,0.155,0.721,0.442,0.808c0.373,0.113,0.807-0.231,0.969-0.767
			c0.161-0.536-0.01-1.063-0.383-1.175c-0.314-0.094-0.67,0.137-0.872,0.532c-1.347-0.43-1.921-0.635-2.55-1.135
			c0.065-0.288,0.115-0.582,0.144-0.883c0.413-0.093,0.825-0.119,1.63-0.092c0.048,0.296,0.228,0.518,0.45,0.524
			c0.266,0.007,0.489-0.297,0.499-0.679c0.01-0.382-0.198-0.697-0.464-0.704c-0.21-0.006-0.393,0.185-0.465,0.453
			c-0.802-0.038-1.205-0.069-1.616-0.218c-0.001-0.842-0.601-1.128,2.722-1.896c0.214,0.368,0.563,0.575,0.866,0.474
			c0.37-0.122,0.527-0.653,0.351-1.184c-0.176-0.532-0.619-0.864-0.989-0.741c-0.292,0.097-0.449,0.449-0.416,0.854
			c-3.196,0.672-2.818,0.33-3.164-0.439c0.295-0.26,0.637-0.482,1.295-0.833c0.235,0.2,0.526,0.25,0.7,0.103
			c0.203-0.172,0.167-0.547-0.08-0.839c-0.247-0.291-0.612-0.388-0.815-0.217c-0.156,0.132-0.17,0.383-0.057,0.625
			c-0.617,0.317-0.966,0.483-1.345,0.564c-0.401-0.708-1.041-0.665,1.393-2.939c0.394,0.173,0.801,0.132,0.986-0.131
			c0.224-0.318,0.035-0.838-0.423-1.161c-0.458-0.322-1.012-0.325-1.236-0.007c-0.174,0.248-0.096,0.616,0.161,0.92
			c-2.369,2.126-2.117,1.598-3.013,0.968c0.126-0.372,0.313-0.738,0.707-1.371c0.262,0.075,0.514,0.02,0.619-0.159
			c0.134-0.229-0.024-0.572-0.353-0.765c-0.33-0.193-0.706-0.164-0.841,0.065c-0.114,0.194-0.017,0.469,0.215,0.666
			c-0.394,0.612-0.617,0.939-0.913,1.206c-0.667-0.382-1.178-0.046-0.279-3.033c0.463,0.056,0.872-0.129,0.96-0.458
			c0.101-0.376-0.255-0.799-0.796-0.945c-0.541-0.145-1.062,0.042-1.163,0.419c-0.074,0.276,0.1,0.577,0.411,0.775
			c-0.413,1.291-0.621,1.857-1.11,2.473c-0.881-0.199-1.051,0.196-0.979-1.727c0.31-0.076,0.526-0.292,0.504-0.524
			c-0.026-0.264-0.355-0.449-0.735-0.412c-0.38,0.038-0.667,0.282-0.642,0.547c0.02,0.199,0.211,0.353,0.466,0.401
			c-0.094,1.899-0.148,1.47-1.129,1.597c-0.394-0.672-0.614-1.232-0.927-2.548c0.39-0.152,0.644-0.458,0.596-0.769
			c-0.059-0.385-0.556-0.628-1.11-0.543c-0.554,0.086-0.955,0.467-0.895,0.852c0.048,0.308,0.377,0.522,0.79,0.553
			c0.291,1.343,0.385,1.924,0.245,2.747c-0.728,0.237-0.684,0.62-1.505-0.928c0.239-0.2,0.338-0.481,0.221-0.678
			c-0.137-0.228-0.513-0.254-0.841-0.059c-0.328,0.196-0.483,0.54-0.347,0.768c0.105,0.175,0.351,0.23,0.608,0.158
			c0.811,1.571,0.577,1.226-0.204,1.808c-0.679-0.391-1.159-0.785-2.143-1.837c0.245-0.338,0.293-0.731,0.085-0.967
			c-0.258-0.292-0.807-0.228-1.227,0.143c-0.42,0.371-0.551,0.908-0.293,1.2c0.208,0.235,0.603,0.236,0.968,0.037
			c2.182,2.427,1.65,2.164,1.016,3.066c-0.355-0.12-0.706-0.298-1.289-0.657c0.099-0.248,0.071-0.499-0.092-0.622
			c-0.212-0.16-0.571-0.042-0.801,0.262c-0.23,0.305-0.244,0.682-0.032,0.843c0.182,0.137,0.472,0.069,0.696-0.145
			c0.583,0.376,0.9,0.595,1.16,0.883c-0.382,0.667-0.044,1.179-3.041,0.277c0.052-0.394-0.081-0.744-0.361-0.859
			c-0.361-0.147-0.825,0.154-1.036,0.673C163.212,363.417,163.333,363.957,163.694,364.104z" />
	</g>
        <g>
		<defs>
			<path id="SVGID_1_" d="M309.2,126.965l45.771,267.935c0.202,1.184,0.287,2.388,0.249,3.582c-0.009,0.535-0.058,1.077-0.137,1.675
				l-0.161,1.004c-0.278,1.558-0.828,3.172-1.621,4.718c-0.385,0.75-0.833,1.491-1.329,2.18c-0.453,0.651-1.003,1.319-1.625,1.979
				c-0.291,0.302-0.645,0.644-1.055,1.016l-0.166,0.149c-0.342,0.3-0.695,0.592-1.07,0.867l-0.262,0.176
				c-0.618,0.448-1.274,0.852-1.958,1.211l-0.231,0.12c-0.547,0.275-1.062,0.504-1.57,0.711c-1.126,0.424-2.29,0.744-3.474,0.946
				l-109.904,18.775c-1.243,0.212-2.507,0.297-3.756,0.239c-0.426-0.018-0.854-0.046-1.265-0.096
				c-0.945-0.111-1.884-0.302-2.815-0.566c-0.446-0.135-0.894-0.28-1.283-0.435c-0.225-0.082-0.397-0.144-0.549-0.208l-0.119-0.05
				c-0.335-0.134-0.717-0.31-1.192-0.552c-1.226-0.636-2.41-1.431-3.507-2.371c-0.449-0.387-0.845-0.762-1.212-1.142
				c-0.601-0.632-1.149-1.304-1.627-1.978c-0.622-0.871-1.159-1.776-1.605-2.737l-0.114-0.252c-0.604-1.357-1.039-2.783-1.29-4.25
				l-45.771-267.935c-1.635-9.569,4.831-18.699,14.41-20.335l109.904-18.775c7.309-1.248,14.357,2.23,18.006,8.202
				C308.003,122.608,308.814,124.704,309.2,126.965z" />
		</defs>
            <clipPath id="SVGID_00000178190038514908085530000001416979760369147283_">
			<use xlink:href="#SVGID_1_" style="overflow:visible;" />
		</clipPath>
            <g style="clip-path:url(#SVGID_00000178190038514908085530000001416979760369147283_);">
			<g>
				<path style="fill:#B099FF;" d="M170.462,403.451c-0.003,0.299,0.013,0.595,0.045,0.886l1.528,0.316l0.463,1.476l-1.072,1.134
					c0.29,0.53,0.641,1.02,1.042,1.465l1.422-0.644l1.244,0.921l-0.2,1.55c0.521,0.245,1.075,0.435,1.653,0.56l0.78-1.355
					l1.548,0.026l0.74,1.377c0.6-0.112,1.176-0.291,1.719-0.531l-0.166-1.554l1.267-0.891l1.407,0.676
					c0.411-0.434,0.774-0.916,1.077-1.439l-1.045-1.158l0.498-1.464l1.536-0.282c0.04-0.305,0.064-0.618,0.067-0.937
					c0.001-0.291-0.014-0.577-0.042-0.859l-1.528-0.321l-0.458-1.477l1.079-1.131c-0.291-0.53-0.64-1.026-1.041-1.472l-1.425,0.64
					l-1.241-0.924l0.207-1.55c-0.538-0.254-1.108-0.451-1.704-0.578l-0.776,1.358l-1.548-0.019l-0.743-1.375
					c-0.6,0.114-1.175,0.296-1.718,0.538l0.17,1.553l-1.262,0.896l-1.409-0.672c-0.411,0.437-0.773,0.92-1.074,1.443l1.052,1.154
					l-0.493,1.469l-1.537,0.284C170.487,402.839,170.464,403.143,170.462,403.451z M176.046,400.808
					c1.493-1.21,3.688-0.986,4.903,0.515c1.208,1.499,0.979,3.691-0.518,4.899c-1.492,1.216-3.688,0.986-4.899-0.509
					C174.314,404.215,174.549,402.018,176.046,400.808z" />
			</g>
		</g>
            <g style="clip-path:url(#SVGID_00000178190038514908085530000001416979760369147283_);">
			<g>
				<g>
					<g>
						
							<rect x="199.639" y="195.468"
                                transform="matrix(0.986 -0.1667 0.1667 0.986 -34.9973 44.9019)"
                                style="fill:#FFFFFF;" width="100.721" height="70.951" />

                        <rect x="195.02" y="195.856"
                            transform="matrix(0.986 -0.1667 0.1667 0.986 -30.5074 43.7498)"
                            style="fill:#A6A1FF;" width="100.721" height="15.526" />

                        <rect x="239.183" y="222.249"
                            transform="matrix(0.986 -0.1667 0.1667 0.986 -33.6224 47.0649)"
                            style="fill:#7DBDDB;" width="48.777" height="3.167" />

                        <rect x="240.265" y="228.651"
                            transform="matrix(0.986 -0.1667 0.1667 0.986 -34.6741 47.3344)"
                            style="fill:#7DBDDB;" width="48.777" height="3.167" />

                        <rect x="241.418" y="235.923"
                            transform="matrix(0.986 -0.1667 0.1667 0.986 -35.9401 46.7592)"
                            style="fill:#7DBDDB;" width="38.354" height="3.136" />

                        <rect x="242.589" y="243.349"
                            transform="matrix(0.986 -0.1667 0.1667 0.986 -37.2508 46.0342)"
                            style="fill:#7DBDDB;" width="26.058" height="3.17" />
					</g>
				</g>

                <rect x="208.908" y="229.239"
                    transform="matrix(0.986 -0.1667 0.1667 0.986 -37.0357 40.4304)"
                    style="fill:#3B4AE4;" width="26.868" height="23.224" />
			</g>
                <g>
				<path style="fill:#FFFFFF;" d="M206.064,210.582c0.14,0.827-0.417,1.61-1.244,1.75c-0.827,0.14-1.61-0.417-1.75-1.244
					c-0.14-0.827,0.417-1.61,1.244-1.75C205.141,209.198,205.924,209.755,206.064,210.582z" />
                    <path style="fill:#FFFFFF;" d="M211.751,209.62c0.14,0.827-0.417,1.61-1.244,1.75c-0.827,0.14-1.61-0.417-1.75-1.244
					c-0.14-0.827,0.417-1.61,1.244-1.75C210.828,208.237,211.611,208.794,211.751,209.62z" />
                    <path style="fill:#FFFFFF;" d="M217.439,208.659c0.14,0.827-0.417,1.61-1.244,1.75c-0.827,0.14-1.61-0.417-1.75-1.244
					c-0.14-0.827,0.417-1.61,1.244-1.75C216.516,207.275,217.299,207.832,217.439,208.659z" />
			</g>
		</g>
            <g style="clip-path:url(#SVGID_00000178190038514908085530000001416979760369147283_);">
			<g>
				<g>
					<g>
						
							<rect x="214.293" y="278.053"
                                transform="matrix(0.986 -0.1667 0.1667 0.986 -48.5579 48.4998)"
                                style="fill:#FFFFFF;" width="100.721" height="70.952" />

                        <rect x="209.674" y="278.441"
                            transform="matrix(0.986 -0.1667 0.1667 0.986 -44.0681 47.3477)"
                            style="fill:#3B4AE4;" width="100.721" height="15.526" />

                        <rect x="253.836" y="304.834"
                            transform="matrix(0.986 -0.1667 0.1667 0.986 -47.1831 50.6628)"
                            style="opacity:0.23;fill:#B099FF;" width="48.777" height="3.167" />

                        <rect x="254.919" y="311.236"
                            transform="matrix(0.986 -0.1667 0.1667 0.986 -48.2347 50.9322)"
                            style="opacity:0.23;fill:#B099FF;" width="48.777" height="3.167" />

                        <rect x="256.071" y="318.508"
                            transform="matrix(0.986 -0.1667 0.1667 0.986 -49.5014 50.3578)"
                            style="opacity:0.23;fill:#B099FF;" width="38.354" height="3.136" />

                        <rect x="257.242" y="325.934"
                            transform="matrix(0.986 -0.1667 0.1667 0.986 -50.8117 49.6323)"
                            style="opacity:0.23;fill:#B099FF;" width="26.058" height="3.17" />
					</g>
				</g>

                <rect x="223.562" y="311.824"
                    transform="matrix(0.986 -0.1667 0.1667 0.986 -50.5963 44.0282)"
                    style="fill:#7DBDDB;" width="26.868" height="23.224" />
			</g>
                <g>
				<path style="fill:#FFFFFF;" d="M220.717,293.167c0.14,0.827-0.417,1.61-1.244,1.75c-0.827,0.14-1.61-0.417-1.75-1.244
					c-0.14-0.827,0.417-1.61,1.244-1.75S220.578,292.34,220.717,293.167z" />
                    <path style="fill:#FFFFFF;" d="M226.405,292.205c0.14,0.827-0.417,1.61-1.244,1.75c-0.827,0.14-1.61-0.417-1.75-1.244
					c-0.14-0.827,0.417-1.61,1.244-1.75C225.482,290.822,226.265,291.379,226.405,292.205z" />
                    <path style="fill:#FFFFFF;" d="M232.092,291.244c0.14,0.827-0.417,1.61-1.244,1.75c-0.827,0.14-1.61-0.417-1.75-1.244
					c-0.14-0.827,0.417-1.61,1.244-1.75C231.169,289.86,231.953,290.417,232.092,291.244z" />
			</g>
		</g>
            <g style="clip-path:url(#SVGID_00000178190038514908085530000001416979760369147283_);">
			<g>
				<g>
					<g>
						
							<rect x="227.84" y="360.397"
                                transform="matrix(0.986 -0.1667 0.1667 0.986 -62.0939 51.9099)"
                                style="fill:#FFFFFF;" width="100.721" height="70.951" />

                        <rect x="223.221" y="360.785"
                            transform="matrix(0.986 -0.1667 0.1667 0.986 -57.604 50.7578)"
                            style="fill:#7DBDDB;" width="100.721" height="15.526" />

                        <rect x="267.384" y="387.178"
                            transform="matrix(0.986 -0.1667 0.1667 0.986 -60.7193 54.073)"
                            style="fill:#7DBDDB;" width="48.777" height="3.167" />

                        <rect x="268.466" y="393.581"
                            transform="matrix(0.986 -0.1667 0.1667 0.986 -61.7706 54.3423)"
                            style="fill:#7DBDDB;" width="48.777" height="3.167" />

                        <rect x="269.619" y="400.852"
                            transform="matrix(0.986 -0.1667 0.1667 0.986 -63.0375 53.768)"
                            style="fill:#7DBDDB;" width="38.354" height="3.136" />

                        <rect x="270.79" y="408.278"
                            transform="matrix(0.986 -0.1667 0.1667 0.986 -64.3477 53.0424)"
                            style="fill:#7DBDDB;" width="26.058" height="3.17" />
					</g>
				</g>

                <rect x="237.109" y="394.169"
                    transform="matrix(0.986 -0.1667 0.1667 0.986 -64.1322 47.4383)"
                    style="fill:#A6A1FF;" width="26.868" height="23.224" />
			</g>
                <g>
				<path style="fill:#FFFFFF;" d="M234.265,375.511c0.14,0.827-0.417,1.61-1.244,1.75c-0.826,0.14-1.61-0.417-1.75-1.244
					c-0.14-0.827,0.417-1.61,1.244-1.75C233.341,374.127,234.125,374.684,234.265,375.511z" />
                    <path style="fill:#FFFFFF;" d="M239.952,374.549c0.14,0.827-0.417,1.61-1.244,1.75s-1.61-0.417-1.75-1.244
					c-0.14-0.827,0.417-1.61,1.244-1.75S239.812,373.723,239.952,374.549z" />
                    <path style="fill:#FFFFFF;" d="M245.64,373.588c0.14,0.827-0.417,1.61-1.244,1.75c-0.827,0.14-1.61-0.417-1.75-1.244
					c-0.14-0.827,0.417-1.61,1.244-1.75C244.716,372.204,245.5,372.761,245.64,373.588z" />
			</g>
		</g>
            <g style="clip-path:url(#SVGID_00000178190038514908085530000001416979760369147283_);">
			<polygon style="fill:#282629;"
                points="263.92,177.447 184.413,190.897 187.812,183.197 267.319,169.747 			" />
                <polygon style="fill:#282629;"
                    points="271.319,176.195 266.684,176.979 270.083,169.28 274.717,168.496 			" />
                <polygon style="fill:#282629;"
                    points="278.819,174.926 274.184,175.71 277.583,168.011 282.218,167.227 			" />
                <polygon style="fill:#5205DB;"
                    points="287.042,166.349 187.973,183.109 196.596,160.189 295.667,143.43 			" />

                <text transform="matrix(0.986 -0.1668 0.1668 0.986 201.1937 174.7016)"
                    style="fill:#FFFFFF; font-family:'OpenSans-ExtraboldItalic'; font-size:10.8662px;">COVID-19 NEWS</text>

                <rect x="201.197" y="177.554"
                    transform="matrix(0.986 -0.1668 0.1668 0.986 -26.7091 41.6092)"
                    style="fill:none;" width="66.323" height="4.517" />

                <text transform="matrix(0.986 -0.1668 0.1668 0.986 201.673 185.2158)"
                    style="fill:#FFFFFF; font-family:'OpenSans-SemiboldItalic'; font-size:2.8526px;">Lorem ipsum dolor sit amet</text>
		</g>
            <polygon
                style="clip-path:url(#SVGID_00000178190038514908085530000001416979760369147283_);fill:#FFFFFF;"
                points="
			241.79,322.457 231.653,318.686 233.456,329.35 		" />
            <g style="clip-path:url(#SVGID_00000178190038514908085530000001416979760369147283_);">
			<path style="fill:#FFFFFF;" d="M214.669,239.376c0.201,0.082,0.449-0.046,0.608-0.291c0.872,0.279,1.252,0.417,1.666,0.746
				c-0.132,0.588,0.129,0.702-1.142,0.655c-0.029-0.19-0.14-0.335-0.284-0.345c-0.177-0.012-0.335,0.186-0.352,0.441
				c-0.016,0.255,0.114,0.471,0.291,0.483c0.145,0.009,0.275-0.121,0.327-0.308c1.284,0.063,0.995,0.097,1.08,0.755
				c-0.459,0.269-0.839,0.417-1.762,0.634c-0.102-0.231-0.29-0.378-0.484-0.353c-0.258,0.033-0.429,0.362-0.381,0.734
				c0.048,0.372,0.297,0.646,0.555,0.612c0.222-0.029,0.378-0.276,0.388-0.581c2.082-0.435,1.835-0.206,2.064,0.304
				c-0.184,0.162-0.396,0.302-0.78,0.511c-0.134-0.148-0.314-0.207-0.441-0.13c-0.152,0.092-0.168,0.344-0.035,0.563
				c0.133,0.218,0.364,0.321,0.516,0.229c0.12-0.073,0.154-0.246,0.098-0.423c0.379-0.194,0.603-0.298,0.845-0.35
				c0.264,0.465,0.686,0.444-0.867,1.905c-0.246-0.15-0.519-0.16-0.666-0.003c-0.177,0.191-0.099,0.552,0.176,0.808
				c0.274,0.255,0.641,0.307,0.818,0.116c0.139-0.149,0.119-0.403-0.027-0.629c1.57-1.406,1.398-1.043,1.991-0.626
				c-0.082,0.243-0.205,0.484-0.457,0.891c-0.197-0.071-0.393-0.034-0.468,0.1c-0.086,0.156,0.026,0.382,0.25,0.506
				c0.224,0.123,0.475,0.097,0.561-0.058c0.065-0.119,0.015-0.279-0.112-0.403c0.664-1.035,0.539-0.783,1.121-0.538
				c-0.002,0.506-0.071,0.915-0.34,1.802c-0.249-0.001-0.458,0.108-0.515,0.292c-0.077,0.249,0.151,0.541,0.509,0.651
				c0.358,0.111,0.711-0.001,0.788-0.25c0.067-0.216-0.096-0.463-0.373-0.598c0.645-1.973,0.678-1.608,1.327-1.545
				c0.062,0.277,0.079,0.553,0.061,1.094c-0.188,0.04-0.325,0.16-0.326,0.304c-0.001,0.178,0.206,0.323,0.461,0.324
				c0.255,0.001,0.464-0.142,0.464-0.32c0.001-0.145-0.138-0.267-0.328-0.308c0.025-0.53,0.046-0.798,0.145-1.071
				c0.56,0,0.754-0.402,1.267,1.814c-0.256,0.122-0.411,0.342-0.361,0.548c0.061,0.254,0.405,0.388,0.77,0.301
				c0.364-0.088,0.611-0.364,0.55-0.617c-0.049-0.202-0.278-0.326-0.553-0.326c-0.215-0.985-0.288-1.383-0.19-1.956
				c0.164-0.053,0.324-0.116,0.48-0.186c0.176,0.2,0.325,0.431,0.565,0.881c-0.134,0.134-0.184,0.306-0.108,0.427
				c0.094,0.151,0.346,0.163,0.563,0.028c0.216-0.136,0.316-0.368,0.222-0.519c-0.078-0.124-0.263-0.153-0.447-0.084
				c-0.224-0.435-0.34-0.675-0.396-0.935c0.472-0.268,0.445-0.695,1.953,0.918c-0.156,0.232-0.179,0.496-0.034,0.649
				c0.179,0.189,0.545,0.134,0.817-0.124c0.272-0.258,0.347-0.62,0.168-0.809c-0.143-0.151-0.405-0.144-0.643-0.005
				c-1.644-1.907-1.124-2.348,0.206-1.588c-0.059,0.211-0.001,0.413,0.146,0.474c0.164,0.068,0.376-0.068,0.475-0.304
				c0.098-0.236,0.044-0.483-0.12-0.551c-0.119-0.049-0.262,0.009-0.37,0.134c-0.397-0.256-0.611-0.403-0.786-0.597
				c0.259-0.453,0.025-0.797,2.115-0.16c-0.007,0.262,0.104,0.482,0.295,0.54c0.249,0.076,0.54-0.154,0.648-0.513
				c0.108-0.359-0.006-0.711-0.256-0.786c-0.21-0.063-0.448,0.091-0.583,0.355c-0.901-0.288-1.285-0.425-1.705-0.759
				c0.043-0.193,0.077-0.39,0.096-0.591c0.277-0.062,0.552-0.079,1.09-0.062c0.032,0.198,0.152,0.347,0.301,0.351
				c0.178,0.005,0.327-0.199,0.334-0.454c0.006-0.255-0.133-0.466-0.31-0.471c-0.141-0.004-0.262,0.124-0.311,0.303
				c-0.536-0.026-0.806-0.046-1.081-0.146c0-0.563-0.402-0.755,1.821-1.268c0.143,0.246,0.377,0.384,0.579,0.317
				c0.247-0.082,0.353-0.436,0.235-0.792c-0.118-0.355-0.414-0.578-0.661-0.496c-0.195,0.065-0.3,0.3-0.278,0.571
				c-2.138,0.449-1.885,0.221-2.116-0.294c0.197-0.174,0.426-0.322,0.866-0.557c0.158,0.133,0.352,0.167,0.468,0.069
				c0.136-0.115,0.111-0.366-0.054-0.561c-0.165-0.195-0.409-0.26-0.545-0.145c-0.104,0.088-0.114,0.257-0.038,0.418
				c-0.413,0.212-0.646,0.323-0.899,0.377c-0.268-0.474-0.697-0.445,0.932-1.965c0.264,0.116,0.536,0.088,0.66-0.088
				c0.15-0.213,0.023-0.561-0.283-0.776c-0.307-0.215-0.677-0.217-0.827-0.005c-0.117,0.166-0.064,0.412,0.108,0.615
				c-1.585,1.422-1.416,1.068-2.015,0.648c0.084-0.249,0.21-0.493,0.473-0.917c0.176,0.05,0.344,0.013,0.414-0.107
				c0.09-0.153-0.016-0.382-0.236-0.512c-0.22-0.129-0.472-0.11-0.562,0.044c-0.076,0.13-0.011,0.314,0.144,0.445
				c-0.263,0.409-0.413,0.628-0.61,0.807c-0.446-0.255-0.788-0.031-0.187-2.029c0.31,0.038,0.583-0.086,0.642-0.306
				c0.068-0.251-0.171-0.534-0.533-0.632c-0.362-0.097-0.71,0.028-0.778,0.28c-0.049,0.185,0.067,0.386,0.275,0.519
				c-0.276,0.864-0.415,1.242-0.743,1.654c-0.589-0.133-0.703,0.131-0.655-1.155c0.207-0.05,0.352-0.195,0.337-0.35
				c-0.017-0.177-0.237-0.3-0.492-0.275c-0.254,0.025-0.446,0.189-0.43,0.366c0.013,0.133,0.141,0.236,0.312,0.268
				c-0.063,1.27-0.099,0.983-0.755,1.068c-0.264-0.449-0.411-0.824-0.62-1.704c0.261-0.102,0.43-0.306,0.398-0.514
				c-0.04-0.258-0.372-0.42-0.742-0.363c-0.37,0.057-0.638,0.313-0.599,0.57c0.032,0.206,0.252,0.349,0.528,0.37
				c0.195,0.898,0.258,1.287,0.164,1.837c-0.487,0.159-0.458,0.414-1.007-0.621c0.16-0.134,0.226-0.322,0.148-0.454
				c-0.091-0.153-0.343-0.17-0.563-0.039c-0.219,0.131-0.323,0.361-0.232,0.514c0.07,0.117,0.235,0.154,0.407,0.106
				c0.542,1.051,0.386,0.82-0.136,1.209c-0.454-0.262-0.775-0.525-1.433-1.229c0.163-0.226,0.196-0.489,0.057-0.647
				c-0.173-0.195-0.54-0.153-0.821,0.095c-0.281,0.248-0.369,0.608-0.196,0.803c0.139,0.157,0.403,0.158,0.647,0.025
				c1.459,1.623,1.104,1.447,0.68,2.051c-0.238-0.08-0.472-0.199-0.862-0.439c0.066-0.166,0.048-0.334-0.062-0.416
				c-0.142-0.107-0.382-0.028-0.536,0.175c-0.154,0.204-0.163,0.456-0.022,0.564c0.122,0.092,0.316,0.046,0.465-0.097
				c0.39,0.251,0.602,0.398,0.776,0.591c-0.256,0.446-0.029,0.788-2.034,0.185c0.035-0.263-0.054-0.498-0.242-0.574
				c-0.241-0.098-0.552,0.103-0.693,0.45C214.347,238.917,214.428,239.278,214.669,239.376z" />
		</g>
            <g style="clip-path:url(#SVGID_00000178190038514908085530000001416979760369147283_);">
			<path style="fill:#FFFFFF;" d="M243.904,404.193c0.201,0.082,0.449-0.046,0.608-0.291c0.872,0.279,1.252,0.417,1.666,0.746
				c-0.132,0.588,0.129,0.702-1.142,0.655c-0.029-0.19-0.14-0.335-0.284-0.345c-0.178-0.012-0.335,0.186-0.352,0.441
				c-0.016,0.255,0.114,0.471,0.291,0.483c0.145,0.009,0.275-0.121,0.328-0.307c1.284,0.063,0.995,0.097,1.08,0.755
				c-0.459,0.269-0.839,0.417-1.762,0.634c-0.103-0.231-0.29-0.378-0.484-0.353c-0.258,0.034-0.429,0.362-0.381,0.734
				c0.048,0.372,0.297,0.646,0.555,0.612c0.222-0.029,0.378-0.276,0.388-0.581c2.082-0.435,1.835-0.206,2.064,0.304
				c-0.184,0.162-0.396,0.302-0.78,0.511c-0.134-0.148-0.314-0.207-0.441-0.13c-0.152,0.092-0.168,0.344-0.035,0.563
				c0.133,0.218,0.364,0.321,0.516,0.229c0.12-0.073,0.154-0.246,0.098-0.423c0.379-0.194,0.604-0.298,0.845-0.35
				c0.264,0.465,0.686,0.444-0.867,1.905c-0.245-0.15-0.519-0.16-0.665-0.003c-0.177,0.191-0.099,0.553,0.176,0.808
				c0.275,0.255,0.641,0.307,0.818,0.116c0.139-0.15,0.119-0.403-0.027-0.629c1.57-1.406,1.398-1.043,1.991-0.626
				c-0.082,0.243-0.205,0.484-0.457,0.891c-0.197-0.071-0.393-0.034-0.468,0.1c-0.086,0.156,0.026,0.382,0.25,0.506
				c0.224,0.123,0.475,0.097,0.561-0.058c0.065-0.119,0.015-0.279-0.112-0.403c0.664-1.035,0.539-0.784,1.121-0.538
				c-0.002,0.506-0.071,0.915-0.34,1.802c-0.249-0.001-0.458,0.108-0.515,0.292c-0.077,0.249,0.151,0.541,0.509,0.651
				c0.358,0.111,0.711-0.001,0.788-0.25c0.067-0.216-0.096-0.463-0.373-0.598c0.645-1.973,0.678-1.608,1.327-1.545
				c0.062,0.277,0.079,0.553,0.061,1.094c-0.188,0.04-0.325,0.16-0.326,0.304c-0.001,0.178,0.206,0.323,0.461,0.324
				c0.256,0.001,0.464-0.142,0.465-0.32c0-0.145-0.138-0.267-0.328-0.308c0.025-0.53,0.046-0.798,0.145-1.071
				c0.56,0,0.754-0.402,1.267,1.814c-0.255,0.122-0.411,0.342-0.361,0.548c0.061,0.254,0.405,0.388,0.77,0.301
				c0.364-0.088,0.611-0.364,0.55-0.617c-0.049-0.202-0.278-0.326-0.553-0.326c-0.215-0.985-0.288-1.383-0.19-1.956
				c0.164-0.053,0.324-0.116,0.48-0.186c0.176,0.2,0.326,0.431,0.565,0.881c-0.134,0.134-0.184,0.306-0.108,0.427
				c0.094,0.151,0.346,0.163,0.563,0.028c0.216-0.136,0.316-0.368,0.222-0.519c-0.078-0.125-0.263-0.153-0.447-0.084
				c-0.224-0.435-0.34-0.675-0.396-0.935c0.472-0.267,0.445-0.695,1.953,0.918c-0.156,0.232-0.179,0.496-0.035,0.649
				c0.179,0.189,0.545,0.134,0.817-0.124c0.272-0.258,0.347-0.62,0.168-0.809c-0.143-0.151-0.405-0.144-0.643-0.005
				c-1.644-1.907-1.124-2.348,0.206-1.588c-0.059,0.211-0.001,0.413,0.146,0.474c0.164,0.068,0.376-0.068,0.475-0.304
				c0.098-0.236,0.044-0.483-0.12-0.551c-0.119-0.049-0.263,0.009-0.37,0.134c-0.397-0.255-0.611-0.403-0.786-0.597
				c0.259-0.453,0.025-0.797,2.115-0.16c-0.007,0.262,0.104,0.482,0.295,0.54c0.25,0.076,0.54-0.154,0.648-0.513
				c0.108-0.359-0.007-0.711-0.256-0.786c-0.21-0.063-0.448,0.091-0.583,0.356c-0.901-0.288-1.285-0.425-1.705-0.759
				c0.043-0.193,0.077-0.39,0.096-0.591c0.276-0.062,0.552-0.079,1.09-0.062c0.032,0.198,0.152,0.347,0.301,0.351
				c0.178,0.005,0.327-0.199,0.334-0.454c0.006-0.255-0.133-0.466-0.31-0.471c-0.141-0.004-0.263,0.124-0.311,0.303
				c-0.536-0.026-0.806-0.046-1.081-0.146c-0.001-0.563-0.402-0.755,1.821-1.268c0.143,0.246,0.377,0.384,0.579,0.317
				c0.247-0.082,0.353-0.436,0.235-0.792c-0.118-0.355-0.414-0.578-0.661-0.496c-0.195,0.065-0.3,0.3-0.279,0.571
				c-2.138,0.449-1.885,0.221-2.116-0.293c0.197-0.174,0.426-0.322,0.866-0.557c0.158,0.133,0.352,0.167,0.468,0.069
				c0.136-0.115,0.111-0.366-0.054-0.561c-0.165-0.195-0.409-0.26-0.545-0.145c-0.104,0.088-0.114,0.256-0.038,0.418
				c-0.413,0.212-0.646,0.323-0.899,0.377c-0.268-0.474-0.697-0.445,0.932-1.965c0.264,0.116,0.536,0.088,0.66-0.088
				c0.15-0.213,0.023-0.561-0.283-0.776c-0.307-0.215-0.677-0.217-0.827-0.004c-0.117,0.166-0.064,0.412,0.108,0.615
				c-1.585,1.422-1.416,1.068-2.015,0.648c0.084-0.249,0.21-0.493,0.473-0.917c0.176,0.05,0.344,0.013,0.414-0.107
				c0.09-0.153-0.016-0.382-0.236-0.512c-0.221-0.129-0.472-0.11-0.562,0.044c-0.076,0.13-0.011,0.314,0.144,0.445
				c-0.263,0.409-0.413,0.628-0.61,0.806c-0.446-0.255-0.788-0.031-0.187-2.029c0.31,0.038,0.583-0.086,0.642-0.306
				c0.068-0.252-0.171-0.534-0.533-0.632c-0.362-0.097-0.71,0.028-0.778,0.28c-0.05,0.185,0.067,0.386,0.275,0.519
				c-0.276,0.863-0.415,1.242-0.743,1.654c-0.589-0.133-0.703,0.131-0.655-1.155c0.207-0.051,0.352-0.195,0.337-0.35
				c-0.017-0.177-0.238-0.3-0.492-0.275c-0.254,0.025-0.447,0.189-0.43,0.366c0.013,0.133,0.141,0.236,0.312,0.268
				c-0.063,1.27-0.099,0.983-0.755,1.068c-0.264-0.449-0.411-0.824-0.62-1.704c0.261-0.102,0.43-0.306,0.398-0.514
				c-0.04-0.258-0.372-0.42-0.742-0.363c-0.37,0.057-0.638,0.312-0.599,0.57c0.032,0.206,0.252,0.349,0.528,0.37
				c0.195,0.898,0.258,1.287,0.164,1.837c-0.487,0.159-0.457,0.414-1.007-0.621c0.16-0.134,0.226-0.322,0.148-0.454
				c-0.091-0.153-0.343-0.17-0.562-0.039c-0.219,0.131-0.323,0.361-0.232,0.514c0.07,0.117,0.235,0.154,0.407,0.106
				c0.542,1.051,0.386,0.82-0.136,1.209c-0.454-0.262-0.775-0.525-1.434-1.229c0.164-0.226,0.196-0.489,0.057-0.647
				c-0.172-0.195-0.54-0.153-0.821,0.095c-0.281,0.248-0.369,0.608-0.196,0.803c0.139,0.157,0.403,0.158,0.647,0.025
				c1.459,1.623,1.104,1.447,0.68,2.051c-0.238-0.08-0.472-0.199-0.862-0.439c0.066-0.166,0.047-0.334-0.062-0.416
				c-0.142-0.107-0.382-0.028-0.536,0.176c-0.154,0.204-0.163,0.456-0.022,0.564c0.122,0.092,0.316,0.047,0.465-0.097
				c0.39,0.251,0.602,0.398,0.776,0.591c-0.255,0.446-0.029,0.788-2.034,0.185c0.035-0.263-0.054-0.498-0.242-0.574
				c-0.241-0.098-0.552,0.103-0.693,0.45C243.582,403.734,243.663,404.095,243.904,404.193z" />
		</g>
	</g>
        <g>
		<circle style="fill:#5205DB;" cx="377.094" cy="302.608" r="14.659" />
            <path style="fill:#FFFFFF;" d="M382.498,299.714c-2.796-3.289-5.405,0.161-5.405,0.161s-2.609-3.45-5.405-0.161
			c-2.735,3.217,3.925,8.172,5.405,8.654C378.573,307.885,385.233,302.931,382.498,299.714z" />
	</g>
        <g>
		<circle style="fill:#3B4AE4;" cx="146.293" cy="335.186" r="12.992" />
            <g>
			<path style="fill:#FFFFFF;" d="M152.025,335.261c0-0.388-0.226-0.721-0.551-0.883c0.325-0.162,0.551-0.495,0.551-0.883
				c0-0.547-0.443-0.99-0.99-0.99c-0.055,0-0.16,0-0.16,0l-2.409,0.053c0,0,0.508-2.141,0.321-3.292
				c-0.187-1.151-1.74-1.659-1.766-0.375c-0.027,1.284-0.187,1.713-1.178,2.837c-0.647,0.735-0.997,1.309-1.162,1.619
				c-0.082,0.155-0.122,0.327-0.122,0.502v4.863c0,0.266,0.216,0.482,0.482,0.482h5.834c0,0,0.105,0,0.16,0
				c0.547,0,1.036-0.4,0.993-0.946c-0.036-0.446-0.583-0.615-0.583-0.615s0.669-0.076,0.669-0.723c0-0.602-0.375-0.749-0.64-0.767
				C151.799,335.982,152.025,335.649,152.025,335.261z" />
                <path style="fill:#FFFFFF;" d="M143.202,333.494h-2.105c-0.345,0-0.624,0.28-0.624,0.625v5.504c0,0.345,0.28,0.624,0.624,0.624
				h2.105c0.345,0,0.624-0.279,0.624-0.624v-5.504C143.827,333.774,143.547,333.494,143.202,333.494z" />
		</g>
	</g>
        <g>
		<path style="fill:#7DBDDB;" d="M122.948,234.132l-22.43,10.197c-1.971,0.896-2.842,3.22-1.946,5.19l5.334,11.733
			c0.896,1.971,3.22,2.842,5.19,1.946l0.263-0.119l4.069,3.14c0.591,0.456,1.45,0.042,1.459-0.705l0.065-4.977l16.574-7.535
			c1.971-0.896,2.842-3.22,1.946-5.191l-5.334-11.733C127.243,234.107,124.919,233.236,122.948,234.132z" />
            <path style="fill:#FFFFFF;" d="M112.801,250.211c0.407,0.895,0.011,1.95-0.884,2.357c-0.895,0.407-1.95,0.011-2.357-0.884
			c-0.407-0.895-0.011-1.95,0.884-2.357C111.339,248.921,112.394,249.316,112.801,250.211z" />
            <path style="fill:#FFFFFF;" d="M117.895,247.895c0.407,0.895,0.011,1.95-0.884,2.357c-0.895,0.407-1.95,0.011-2.357-0.884
			c-0.407-0.895-0.011-1.95,0.884-2.357C116.433,246.605,117.488,247,117.895,247.895z" />
            <path style="fill:#FFFFFF;" d="M122.989,245.579c0.407,0.895,0.011,1.95-0.884,2.357c-0.895,0.407-1.95,0.011-2.357-0.884
			c-0.407-0.895-0.011-1.95,0.884-2.357C121.527,244.289,122.582,244.684,122.989,245.579z" />
	</g>
</g>
</svg>
